# xmcd
#
# Track frame offsets: 
#        150
#        18397
#        41982
#
# Disc length: 805 seconds
#
# Revision: 0
# Processed by: cddbd v1.5.2PL0 Copyright (c) Steve Scherf et al.
# Submitted via: ExactAudioCopy v0.95a5
#
DISCID=20032303
DTITLE=Kavana - Where Are You
DYEAR=1996
DGENRE=Rock
TTITLE0=Where Are You
TTITLE1=Where Are You (Live)
TTITLE2=For The Very First Time (Full Version)
EXTD=
EXTT0=
EXTT1=
EXTT2=
PLAYORDER=
